<svg width="800" height="200" xmlns="http://www.w3.org/2000/svg">
  
<!--Vertical line  -->
<line x1="40" y1="30" x2="40" y2="130" stroke="black" stroke-width="2"/>
<line x1="400" y1="30" x2="400" y2="130" stroke="black" stroke-width="2"/>
  
<!--horizontal line Before -->
<line x1="0" y1="52" x2="42.5" y2="52" stroke="black" stroke-width="8"/>
<line x1="0" y1="72" x2="41" y2="72" stroke="blue" stroke-width="8"/>
<line x1="0" y1="92" x2="41" y2="92" stroke="red" stroke-width="8"/>
<line x1="0" y1="112" x2="42.5" y2="112" stroke="green" stroke-width="8"/>
  
<!--horizontal line After Q 130 130 210 82 
                  Q 290 50 360 82 
                  Q 450 130 510 82 -->
<line x1="400" y1="52" x2="435" y2="52" stroke="black" stroke-width="8"/>
<line x1="400" y1="72" x2="435" y2="72" stroke="blue" stroke-width="8"/>
<line x1="400" y1="92" x2="435" y2="92" stroke="red" stroke-width="8"/>
<line x1="400" y1="112" x2="435" y2="112" stroke="green" stroke-width="8"/>

<!--Path Curve Q 295 10 340 102-->
<path d="M40 52 Q 130 -10 210 82
                Q 290 190 380 82
                Q 470 -10 550 82
                Q 650 190 
  " fill="none" stroke="black" stroke-width="25"/>
  
  <path d="M40 72 Q 130 50 210 82 
                  Q 290 130 380 82
                  Q 470 50 550 82 
    
    " fill="none" stroke="blue" stroke-width="25"/>
  
  <path d="M40 93 Q 130 130 210 82 
                  Q 290 50 380 82 
                  Q 470 130 550 82 
    
    " fill="none" stroke="red" stroke-width="25"/>
  
  <path d="M40 112 Q 130 190 210 82 
                   Q 290 -10 380 82
                   Q 470 190 550 82
    
    " fill="none" stroke="green" stroke-width="25"/>

  
</svg>